%TF.GenerationSoftware,KiCad,Pcbnew,(7.0.0)*%
%TF.CreationDate,2023-03-22T20:44:46+09:00*%
%TF.ProjectId,NixieIndicator,4e697869-6549-46e6-9469-6361746f722e,rev?*%
%TF.SameCoordinates,Original*%
%TF.FileFunction,Soldermask,Bot*%
%TF.FilePolarity,Negative*%
%FSLAX46Y46*%
G04 Gerber Fmt 4.6, Leading zero omitted, Abs format (unit mm)*
G04 Created by KiCad (PCBNEW (7.0.0)) date 2023-03-22 20:44:46*
%MOMM*%
%LPD*%
G01*
G04 APERTURE LIST*
G04 Aperture macros list*
%AMRoundRect*
0 Rectangle with rounded corners*
0 $1 Rounding radius*
0 $2 $3 $4 $5 $6 $7 $8 $9 X,Y pos of 4 corners*
0 Add a 4 corners polygon primitive as box body*
4,1,4,$2,$3,$4,$5,$6,$7,$8,$9,$2,$3,0*
0 Add four circle primitives for the rounded corners*
1,1,$1+$1,$2,$3*
1,1,$1+$1,$4,$5*
1,1,$1+$1,$6,$7*
1,1,$1+$1,$8,$9*
0 Add four rect primitives between the rounded corners*
20,1,$1+$1,$2,$3,$4,$5,0*
20,1,$1+$1,$4,$5,$6,$7,0*
20,1,$1+$1,$6,$7,$8,$9,0*
20,1,$1+$1,$8,$9,$2,$3,0*%
G04 Aperture macros list end*
%ADD10R,1.600000X1.600000*%
%ADD11O,1.600000X1.600000*%
%ADD12R,1.500000X1.050000*%
%ADD13O,1.500000X1.050000*%
%ADD14C,1.600000*%
%ADD15C,3.200000*%
%ADD16RoundRect,0.250000X0.600000X0.725000X-0.600000X0.725000X-0.600000X-0.725000X0.600000X-0.725000X0*%
%ADD17O,1.700000X1.950000*%
%ADD18RoundRect,0.250000X-0.725000X0.600000X-0.725000X-0.600000X0.725000X-0.600000X0.725000X0.600000X0*%
%ADD19O,1.950000X1.700000*%
%ADD20O,1.700000X1.700000*%
%ADD21R,1.700000X1.700000*%
%ADD22RoundRect,0.250000X0.725000X-0.600000X0.725000X0.600000X-0.725000X0.600000X-0.725000X-0.600000X0*%
%ADD23R,1.050000X1.500000*%
%ADD24O,1.050000X1.500000*%
G04 APERTURE END LIST*
D10*
%TO.C,U6*%
X55744999Y-24619999D03*
D11*
X58284999Y-24619999D03*
X60824999Y-24619999D03*
X63364999Y-24619999D03*
X65904999Y-24619999D03*
X68444999Y-24619999D03*
X70984999Y-24619999D03*
X73524999Y-24619999D03*
X73524999Y-16999999D03*
X70984999Y-16999999D03*
X68444999Y-16999999D03*
X65904999Y-16999999D03*
X63364999Y-16999999D03*
X60824999Y-16999999D03*
X58284999Y-16999999D03*
X55744999Y-16999999D03*
%TD*%
D12*
%TO.C,Q2*%
X51999999Y-19269999D03*
D13*
X51999999Y-17999999D03*
X51999999Y-16729999D03*
%TD*%
D10*
%TO.C,U5*%
X23319999Y-24619999D03*
D11*
X25859999Y-24619999D03*
X28399999Y-24619999D03*
X30939999Y-24619999D03*
X33479999Y-24619999D03*
X36019999Y-24619999D03*
X38559999Y-24619999D03*
X41099999Y-24619999D03*
X41099999Y-16999999D03*
X38559999Y-16999999D03*
X36019999Y-16999999D03*
X33479999Y-16999999D03*
X30939999Y-16999999D03*
X28399999Y-16999999D03*
X25859999Y-16999999D03*
X23319999Y-16999999D03*
%TD*%
D14*
%TO.C,R7*%
X106300000Y-24080000D03*
D11*
X106299999Y-13919999D03*
%TD*%
D14*
%TO.C,C4*%
X52890000Y-22500000D03*
X50390000Y-22500000D03*
%TD*%
%TO.C,R25*%
X141300000Y-24080000D03*
D11*
X141299999Y-13919999D03*
%TD*%
D10*
%TO.C,U2*%
X94219999Y-34799999D03*
D11*
X96759999Y-34799999D03*
X99299999Y-34799999D03*
X101839999Y-34799999D03*
X104379999Y-34799999D03*
X106919999Y-34799999D03*
X109459999Y-34799999D03*
X111999999Y-34799999D03*
X111999999Y-27179999D03*
X109459999Y-27179999D03*
X106919999Y-27179999D03*
X104379999Y-27179999D03*
X101839999Y-27179999D03*
X99299999Y-27179999D03*
X96759999Y-27179999D03*
X94219999Y-27179999D03*
%TD*%
D15*
%TO.C,*%
X87000000Y-47000000D03*
%TD*%
%TO.C,*%
X3000000Y-3000000D03*
%TD*%
D10*
%TO.C,U3*%
X117719999Y-34799999D03*
D11*
X120259999Y-34799999D03*
X122799999Y-34799999D03*
X125339999Y-34799999D03*
X127879999Y-34799999D03*
X130419999Y-34799999D03*
X132959999Y-34799999D03*
X135499999Y-34799999D03*
X135499999Y-27179999D03*
X132959999Y-27179999D03*
X130419999Y-27179999D03*
X127879999Y-27179999D03*
X125339999Y-27179999D03*
X122799999Y-27179999D03*
X120259999Y-27179999D03*
X117719999Y-27179999D03*
%TD*%
D14*
%TO.C,R24*%
X126500000Y-37920000D03*
D11*
X126499999Y-48079999D03*
%TD*%
D12*
%TO.C,Q1*%
X19599999Y-19269999D03*
D13*
X19599999Y-17999999D03*
X19599999Y-16729999D03*
%TD*%
D14*
%TO.C,R42*%
X78920000Y-12100000D03*
D11*
X89079999Y-12099999D03*
%TD*%
D14*
%TO.C,R29*%
X150300000Y-13920000D03*
D11*
X150299999Y-24079999D03*
%TD*%
D16*
%TO.C,J4*%
X122000000Y-9500000D03*
D17*
X119499999Y-9499999D03*
X116999999Y-9499999D03*
X114499999Y-9499999D03*
X111999999Y-9499999D03*
X109499999Y-9499999D03*
X106999999Y-9499999D03*
X104499999Y-9499999D03*
X101999999Y-9499999D03*
X99499999Y-9499999D03*
X96999999Y-9499999D03*
X94499999Y-9499999D03*
%TD*%
D15*
%TO.C,*%
X165000000Y-3000000D03*
%TD*%
D14*
%TO.C,R9*%
X100000000Y-37920000D03*
D11*
X99999999Y-48079999D03*
%TD*%
D14*
%TO.C,R8*%
X109300000Y-13920000D03*
D11*
X109299999Y-24079999D03*
%TD*%
D10*
%TO.C,U1*%
X25319999Y-45724999D03*
D11*
X27859999Y-45724999D03*
X30399999Y-45724999D03*
X32939999Y-45724999D03*
X35479999Y-45724999D03*
X38019999Y-45724999D03*
X40559999Y-45724999D03*
X43099999Y-45724999D03*
X45639999Y-45724999D03*
X48179999Y-45724999D03*
X50719999Y-45724999D03*
X53259999Y-45724999D03*
X55799999Y-45724999D03*
X58339999Y-45724999D03*
X60879999Y-45724999D03*
X63419999Y-45724999D03*
X65959999Y-45724999D03*
X68499999Y-45724999D03*
X71039999Y-45724999D03*
X73579999Y-45724999D03*
X73579999Y-30484999D03*
X71039999Y-30484999D03*
X68499999Y-30484999D03*
X65959999Y-30484999D03*
X63419999Y-30484999D03*
X60879999Y-30484999D03*
X58339999Y-30484999D03*
X55799999Y-30484999D03*
X53259999Y-30484999D03*
X50719999Y-30484999D03*
X48179999Y-30484999D03*
X45639999Y-30484999D03*
X43099999Y-30484999D03*
X40559999Y-30484999D03*
X38019999Y-30484999D03*
X35479999Y-30484999D03*
X32939999Y-30484999D03*
X30399999Y-30484999D03*
X27859999Y-30484999D03*
X25319999Y-30484999D03*
%TD*%
D14*
%TO.C,R19*%
X129800000Y-24080000D03*
D11*
X129799999Y-13919999D03*
%TD*%
D14*
%TO.C,R6*%
X97000000Y-37920000D03*
D11*
X96999999Y-48079999D03*
%TD*%
D14*
%TO.C,R18*%
X120500000Y-37920000D03*
D11*
X120499999Y-48079999D03*
%TD*%
D14*
%TO.C,R10*%
X112000000Y-37920000D03*
D11*
X111999999Y-48079999D03*
%TD*%
D14*
%TO.C,R2*%
X97300000Y-13920000D03*
D11*
X97299999Y-24079999D03*
%TD*%
D14*
%TO.C,R21*%
X123500000Y-37920000D03*
D11*
X123499999Y-48079999D03*
%TD*%
D15*
%TO.C,*%
X3000000Y-47000000D03*
%TD*%
D14*
%TO.C,R16*%
X123800000Y-24080000D03*
D11*
X123799999Y-13919999D03*
%TD*%
D14*
%TO.C,R36*%
X150000000Y-38000000D03*
D11*
X149999999Y-48159999D03*
%TD*%
D14*
%TO.C,R35*%
X156000000Y-48160000D03*
D11*
X155999999Y-37999999D03*
%TD*%
D14*
%TO.C,R5*%
X103300000Y-13920000D03*
D11*
X103299999Y-24079999D03*
%TD*%
D15*
%TO.C,*%
X81000000Y-47000000D03*
%TD*%
D14*
%TO.C,R4*%
X100300000Y-24080000D03*
D11*
X100299999Y-13919999D03*
%TD*%
D16*
%TO.C,J2*%
X38000000Y-9500000D03*
D17*
X35499999Y-9499999D03*
X32999999Y-9499999D03*
X30499999Y-9499999D03*
X27999999Y-9499999D03*
X25499999Y-9499999D03*
X22999999Y-9499999D03*
X20499999Y-9499999D03*
X17999999Y-9499999D03*
X15499999Y-9499999D03*
X12999999Y-9499999D03*
X10499999Y-9499999D03*
%TD*%
D14*
%TO.C,R27*%
X141000000Y-38000000D03*
D11*
X140999999Y-48159999D03*
%TD*%
D15*
%TO.C,*%
X165000000Y-47000000D03*
%TD*%
D16*
%TO.C,J3*%
X73500000Y-9500000D03*
D17*
X70999999Y-9499999D03*
X68499999Y-9499999D03*
X65999999Y-9499999D03*
X63499999Y-9499999D03*
X60999999Y-9499999D03*
X58499999Y-9499999D03*
X55999999Y-9499999D03*
X53499999Y-9499999D03*
X50999999Y-9499999D03*
X48499999Y-9499999D03*
X45999999Y-9499999D03*
%TD*%
D14*
%TO.C,R34*%
X159000000Y-38000000D03*
D11*
X158999999Y-48159999D03*
%TD*%
D14*
%TO.C,R22*%
X135500000Y-37920000D03*
D11*
X135499999Y-48079999D03*
%TD*%
D10*
%TO.C,U4*%
X141219999Y-34799999D03*
D11*
X143759999Y-34799999D03*
X146299999Y-34799999D03*
X148839999Y-34799999D03*
X151379999Y-34799999D03*
X153919999Y-34799999D03*
X156459999Y-34799999D03*
X158999999Y-34799999D03*
X158999999Y-27179999D03*
X156459999Y-27179999D03*
X153919999Y-27179999D03*
X151379999Y-27179999D03*
X148839999Y-27179999D03*
X146299999Y-27179999D03*
X143759999Y-27179999D03*
X141219999Y-27179999D03*
%TD*%
D14*
%TO.C,R15*%
X117500000Y-37920000D03*
D11*
X117499999Y-48079999D03*
%TD*%
D18*
%TO.C,J7*%
X5400000Y-32100000D03*
D19*
X5399999Y-34599999D03*
X5399999Y-37099999D03*
%TD*%
D14*
%TO.C,R14*%
X120800000Y-13920000D03*
D11*
X120799999Y-24079999D03*
%TD*%
D15*
%TO.C,*%
X87000000Y-3000000D03*
%TD*%
D14*
%TO.C,R40*%
X47500000Y-26080000D03*
D11*
X47499999Y-15919999D03*
%TD*%
D14*
%TO.C,R33*%
X147000000Y-38000000D03*
D11*
X146999999Y-48159999D03*
%TD*%
D14*
%TO.C,C5*%
X80500000Y-17350000D03*
X80500000Y-14850000D03*
%TD*%
D20*
%TO.C,J8*%
X11179999Y-43299999D03*
X13719999Y-43299999D03*
X16259999Y-43299999D03*
X18799999Y-43299999D03*
X11179999Y-40759999D03*
X13719999Y-40759999D03*
X16259999Y-40759999D03*
X18799999Y-40759999D03*
X11179999Y-38219999D03*
X13719999Y-38219999D03*
X16259999Y-38219999D03*
X18799999Y-38219999D03*
X11179999Y-35679999D03*
X13719999Y-35679999D03*
X16259999Y-35679999D03*
X18799999Y-35679999D03*
X11179999Y-33139999D03*
X13719999Y-33139999D03*
X16259999Y-33139999D03*
X18799999Y-33139999D03*
X11179999Y-30599999D03*
X13719999Y-30599999D03*
D21*
X16259999Y-30599999D03*
X18799999Y-30599999D03*
D20*
X11179999Y-45839999D03*
X13719999Y-45839999D03*
X16259999Y-45839999D03*
X18799999Y-45839999D03*
%TD*%
D14*
%TO.C,R32*%
X156300000Y-13920000D03*
D11*
X156299999Y-24079999D03*
%TD*%
D16*
%TO.C,J5*%
X157500000Y-9500000D03*
D17*
X154999999Y-9499999D03*
X152499999Y-9499999D03*
X149999999Y-9499999D03*
X147499999Y-9499999D03*
X144999999Y-9499999D03*
X142499999Y-9499999D03*
X139999999Y-9499999D03*
X137499999Y-9499999D03*
X134999999Y-9499999D03*
X132499999Y-9499999D03*
X129999999Y-9499999D03*
%TD*%
D14*
%TO.C,R39*%
X44500000Y-15920000D03*
D11*
X44499999Y-26079999D03*
%TD*%
D14*
%TO.C,C2*%
X50390000Y-25000000D03*
X52890000Y-25000000D03*
%TD*%
%TO.C,R17*%
X126800000Y-13920000D03*
D11*
X126799999Y-24079999D03*
%TD*%
D14*
%TO.C,R30*%
X144000000Y-38000000D03*
D11*
X143999999Y-48159999D03*
%TD*%
D14*
%TO.C,R38*%
X15100000Y-15920000D03*
D11*
X15099999Y-26079999D03*
%TD*%
D22*
%TO.C,J1*%
X163375000Y-21500000D03*
D19*
X163374999Y-18999999D03*
X163374999Y-16499999D03*
%TD*%
D14*
%TO.C,R31*%
X153300000Y-24080000D03*
D11*
X153299999Y-13919999D03*
%TD*%
D14*
%TO.C,R28*%
X147300000Y-24080000D03*
D11*
X147299999Y-13919999D03*
%TD*%
D14*
%TO.C,R37*%
X12100000Y-15920000D03*
D11*
X12099999Y-26079999D03*
%TD*%
D14*
%TO.C,R41*%
X78920000Y-9100000D03*
D11*
X89079999Y-9099999D03*
%TD*%
D10*
%TO.C,U7*%
X80379999Y-20319999D03*
D11*
X80379999Y-22859999D03*
X80379999Y-25399999D03*
X80379999Y-27939999D03*
X80379999Y-30479999D03*
X80379999Y-33019999D03*
X80379999Y-35559999D03*
X80379999Y-38099999D03*
X87999999Y-38099999D03*
X87999999Y-35559999D03*
X87999999Y-33019999D03*
X87999999Y-30479999D03*
X87999999Y-27939999D03*
X87999999Y-25399999D03*
X87999999Y-22859999D03*
X87999999Y-20319999D03*
%TD*%
D14*
%TO.C,R20*%
X132800000Y-13920000D03*
D11*
X132799999Y-24079999D03*
%TD*%
D23*
%TO.C,Q3*%
X85229999Y-16599999D03*
D24*
X86499999Y-16599999D03*
X87769999Y-16599999D03*
%TD*%
D14*
%TO.C,R11*%
X109000000Y-48080000D03*
D11*
X108999999Y-37919999D03*
%TD*%
D18*
%TO.C,J6*%
X5400000Y-18300000D03*
D19*
X5399999Y-20799999D03*
X5399999Y-23299999D03*
%TD*%
D14*
%TO.C,R13*%
X117800000Y-24080000D03*
D11*
X117799999Y-13919999D03*
%TD*%
D14*
%TO.C,R12*%
X103000000Y-37920000D03*
D11*
X102999999Y-48079999D03*
%TD*%
D14*
%TO.C,R1*%
X94300000Y-24080000D03*
D11*
X94299999Y-13919999D03*
%TD*%
D14*
%TO.C,C1*%
X20600000Y-22500000D03*
X18100000Y-22500000D03*
%TD*%
%TO.C,R3*%
X94000000Y-37920000D03*
D11*
X93999999Y-48079999D03*
%TD*%
D14*
%TO.C,R23*%
X132500000Y-48080000D03*
D11*
X132499999Y-37919999D03*
%TD*%
D14*
%TO.C,C3*%
X20600000Y-25000000D03*
X18100000Y-25000000D03*
%TD*%
D15*
%TO.C,*%
X81000000Y-3000000D03*
%TD*%
D14*
%TO.C,R26*%
X144300000Y-13920000D03*
D11*
X144299999Y-24079999D03*
%TD*%
M02*
