M48
INCH
T1C0.0157
T2C0.0295
T3C0.0315
T4C0.0374
T5C0.0394
%
G90
G05
T1
X0.0354Y-0.2244
X0.0394Y-0.4291
X0.0433Y-0.9291
X0.0472Y-0.6457
X0.0709Y-1.0906
X0.0709Y-1.2165
X0.0709Y-1.4724
X0.0709Y-1.6496
X0.2362Y-1.0945
X0.252Y-0.4291
X0.252Y-0.6378
X0.2559Y-0.2244
X0.2598Y-0.0315
X0.2913Y-1.6535
X0.3071Y-1.8937
X0.3465Y-0.6969
X0.3937Y-0.8858
X0.437Y-0.5
X0.4488Y-1.9213
X0.4764Y-0.7047
X0.4803Y-0.9528
X0.5354Y-0.6102
X0.5669Y-0.2362
X0.5748Y-0.0315
X0.6457Y-0.4961
X0.7283Y-0.5984
X0.7283Y-1.9449
X0.811Y-0.4961
X0.811Y-1.3583
X0.811Y-1.5512
X0.815Y-1.2008
X0.8465Y-1.748
X0.8548Y-1.0897
X0.8583Y-0.2441
X0.8622Y-1.685
X0.8661Y-0.0354
X0.9055Y-1.7323
X0.9147Y-0.4671
X0.9724Y-0.4307
X0.9961Y-1.2907
X0.9961Y-1.3701
X0.9961Y-1.7323
X1.0Y-1.5
X1.0Y-1.626
X1.0354Y-0.752
X1.0354Y-1.9488
X1.0709Y-0.5354
X1.0945Y-1.3084
X1.0945Y-1.4331
X1.0945Y-1.5669
X1.1417Y-0.752
X1.1457Y-1.6024
X1.1535Y-0.311
X1.1693Y-0.4764
X1.1732Y-0.5709
X1.1969Y-1.3262
X1.1969Y-1.6713
X1.2008Y-0.1299
X1.2559Y-0.311
X1.2598Y-0.752
X1.2756Y-0.4843
X1.2913Y-0.8465
X1.2953Y-1.437
X1.2953Y-1.5433
X1.2969Y-1.3439
X1.3268Y-1.9488
X1.3307Y-0.5748
X1.3543Y-0.8858
X1.378Y-0.4843
X1.3819Y-0.752
X1.3898Y-1.437
X1.3898Y-1.5433
X1.3969Y-1.3616
X1.3976Y-1.6024
X1.4409Y-1.6713
X1.4646Y-0.8858
X1.4803Y-0.752
X1.4961Y-0.4606
X1.4961Y-0.5748
X1.4961Y-1.4606
X1.4961Y-1.622
X1.4961Y-1.689
X1.4969Y-1.3793
X1.5472Y-0.1339
X1.5709Y-0.8858
X1.5866Y-0.752
X1.5906Y-1.4606
X1.5906Y-1.622
X1.5984Y-1.689
X1.6181Y-0.2913
X1.6339Y-1.9449
X1.6457Y-1.689
X1.6781Y-0.3258
X1.6811Y-0.8858
X1.6929Y-0.752
X1.6969Y-1.689
X1.752Y-0.5
X1.752Y-0.6969
X1.752Y-0.8937
X1.752Y-1.397
X1.7638Y-1.4409
X1.7677Y-1.5709
X1.7795Y-1.875
X1.811Y-0.9567
X1.811Y-1.6536
X1.8386Y-0.0276
X1.8386Y-0.2402
X1.8701Y-0.8622
X1.878Y-0.7205
X1.8858Y-1.4724
X1.8858Y-1.5591
X1.8976Y-0.5
X1.8976Y-1.1339
X1.8976Y-1.2992
X1.9153Y-1.6231
X1.9406Y-1.0425
X1.9449Y-1.9488
X1.9683Y-1.6536
X1.9843Y-0.7587
X1.9843Y-1.0858
X2.0Y-1.7402
X2.0079Y-0.5748
X2.0236Y-1.0858
X2.0512Y-1.2992
X2.0512Y-1.4685
X2.0512Y-1.563
X2.0827Y-1.1339
X2.0866Y-0.4685
X2.0974Y-1.7396
X2.1434Y-1.4511
X2.1535Y-0.0315
X2.1535Y-0.2441
X2.1969Y-1.7402
X2.2008Y-1.9488
X2.239Y-0.5079
X2.2495Y-1.6187
X2.3071Y-0.5591
X2.3071Y-0.752
X2.3095Y-1.6172
X2.3618Y-1.0425
X2.3898Y-1.4055
X2.4134Y-0.5591
X2.4173Y-0.752
X2.4221Y-1.5239
X2.4449Y-1.9488
X2.4606Y-1.2677
X2.4724Y-0.0354
X2.4764Y-0.248
X2.4961Y-1.4724
X2.5079Y-0.752
X2.5512Y-0.5551
X2.5532Y-1.5108
X2.5866Y-1.2913
X2.5906Y-0.8465
X2.6122Y-0.7731
X2.624Y-1.5288
X2.6496Y-0.563
X2.6929Y-1.0394
X2.6969Y-0.4567
X2.6969Y-0.8622
X2.7047Y-1.4331
X2.7087Y-1.2913
X2.7402Y-0.7716
X2.748Y-0.5591
X2.7756Y-1.9488
X2.7948Y-0.5005
X2.7953Y-0.7441
X2.7953Y-0.878
X2.7992Y-0.0354
X2.8031Y-0.2559
X2.8268Y-0.5591
X2.878Y-1.2913
X2.8819Y-1.4331
X2.8858Y-1.875
X2.8898Y-0.878
X2.8937Y-0.6142
X2.8937Y-0.7441
X2.9803Y-0.7283
X2.9842Y-1.885
X2.9843Y-0.5866
X2.9921Y-0.9213
X3.0068Y-1.8523
X3.0113Y-1.1748
X3.0325Y-1.8225
X3.0354Y-0.685
X3.0354Y-1.0827
X3.0583Y-1.1411
X3.0748Y-1.9213
X3.0758Y-1.82
X3.0896Y-1.4882
X3.0896Y-1.5288
X3.0896Y-1.763
X3.0945Y-0.0276
X3.0945Y-0.252
X3.122Y-0.5414
X3.2207Y-0.3683
X3.248Y-0.7992
X3.252Y-1.4921
X3.2559Y-0.3898
X3.2756Y-1.1969
X3.2756Y-1.3071
X3.2756Y-1.4016
X3.2992Y-0.3583
X3.3031Y-1.9252
X3.3071Y-0.0315
X3.311Y-0.2638
X3.3155Y-1.7807
X3.3386Y-0.5748
X3.3723Y-1.2856
X3.3728Y-0.798
X3.3728Y-0.8846
X3.3728Y-0.9988
X3.374Y-1.1024
X3.3819Y-1.4685
X3.4449Y-0.5748
X3.5394Y-1.7874
X3.5433Y-0.2362
X3.5433Y-0.8
X3.5433Y-1.9331
X3.5551Y-0.0394
X3.5787Y-1.4843
X3.5799Y-0.3898
X3.5925Y-0.8701
X3.5976Y-0.5492
X3.6102Y-0.9528
X3.621Y-0.6614
X3.626Y-1.8622
X3.6336Y-0.5273
X3.6457Y-0.2697
X3.6496Y-0.6899
X3.6496Y-1.5465
X3.7008Y-1.1693
X3.7008Y-1.2677
X3.7126Y-0.8465
X3.7638Y-1.8071
X3.7717Y-0.6102
X3.7992Y-1.1693
X3.7992Y-1.2677
X3.878Y-1.5642
X3.878Y-1.9409
X3.8976Y-1.1693
X3.8976Y-1.2677
X3.9291Y-0.0354
X3.9291Y-0.1811
X3.9488Y-0.8465
X3.9921Y-1.8071
X3.9961Y-1.1693
X3.9961Y-1.2677
X3.9961Y-1.5472
X4.0079Y-0.6102
X4.0945Y-1.1693
X4.0945Y-1.2677
X4.1063Y-1.5819
X4.1575Y-0.2992
X4.1772Y-1.9409
X4.185Y-0.8465
X4.189Y-1.5197
X4.1929Y-1.1693
X4.1929Y-1.2677
X4.2441Y-0.6102
X4.2638Y-0.4409
X4.3189Y-0.189
X4.3228Y-0.0394
X4.3228Y-1.1693
X4.3228Y-1.2677
X4.3386Y-1.5996
X4.3504Y-1.811
X4.3583Y-0.2913
X4.3819Y-0.4843
X4.3858Y-0.9291
X4.3976Y-0.6575
X4.4213Y-1.1693
X4.4213Y-1.2677
X4.4357Y-0.794
X4.4449Y-1.5709
X4.4635Y-0.6568
X4.4764Y-1.0236
X4.4941Y-0.6321
X4.5157Y-0.2913
X4.5157Y-1.9409
X4.5197Y-0.8465
X4.5217Y-0.604
X4.5315Y-1.4764
X4.5502Y-0.5716
X4.5748Y-1.0669
X4.5787Y-0.5444
X4.5787Y-1.6173
X4.6299Y-1.1693
X4.6299Y-1.2677
X4.6378Y-0.6378
X4.6378Y-0.8465
X4.6496Y-0.0276
X4.6575Y-0.1811
X4.685Y-1.5709
X4.689Y-1.811
X4.7283Y-1.1693
X4.7283Y-1.2677
X4.7559Y-0.6378
X4.7992Y-1.6351
X4.8031Y-1.9449
X4.8189Y-0.6969
X4.8268Y-1.1693
X4.8268Y-1.2677
X4.874Y-0.622
X4.874Y-0.8465
X4.9213Y-1.5748
X4.9213Y-1.811
X4.9252Y-1.1693
X4.9252Y-1.2677
X4.937Y-0.6654
X4.9488Y-0.3583
X4.9528Y-0.0276
X4.9921Y-0.622
X5.0236Y-1.1693
X5.0236Y-1.2677
X5.0315Y-1.6528
X5.0984Y-1.9449
X5.1102Y-0.622
X5.1102Y-0.8465
X5.122Y-1.1693
X5.122Y-1.2677
X5.126Y-1.5709
X5.1772Y-0.6339
X5.2244Y-0.0276
X5.2244Y-0.252
X5.2441Y-1.1693
X5.2441Y-1.2677
X5.2638Y-1.6705
X5.2756Y-1.815
X5.3346Y-0.6024
X5.3425Y-1.1693
X5.3425Y-1.2677
X5.3583Y-0.5472
X5.374Y-1.5984
X5.3858Y-0.9488
X5.4449Y-0.8465
X5.4449Y-1.9449
X5.4567Y-0.6939
X5.4646Y-1.6882
X5.4882Y-0.6654
X5.5512Y-1.1693
X5.5512Y-1.2677
X5.563Y-0.4764
X5.563Y-0.8465
X5.6102Y-1.6142
X5.6102Y-1.8189
X5.6112Y-0.6339
X5.6181Y-0.0315
X5.622Y-0.2598
X5.6496Y-1.1693
X5.6496Y-1.2677
X5.6732Y-0.6732
X5.6811Y-0.4724
X5.7283Y-1.7059
X5.7283Y-1.9449
X5.748Y-1.1693
X5.748Y-1.2677
X5.7795Y-0.6732
X5.7992Y-0.4646
X5.7992Y-0.8465
X5.8465Y-1.1693
X5.8465Y-1.2677
X5.8465Y-1.6142
X5.8465Y-1.8189
X5.9173Y-0.6575
X5.9252Y-0.4646
X5.9449Y-1.1693
X5.9449Y-1.2677
X5.9567Y-1.7236
X5.9882Y-0.0276
X5.9921Y-0.2638
X6.0249Y-1.7533
X6.0276Y-1.4961
X6.0276Y-1.6654
X6.0276Y-1.9409
X6.0354Y-0.8465
X6.0433Y-0.4646
X6.0433Y-0.6575
X6.0433Y-0.7953
X6.0433Y-1.1693
X6.0433Y-1.2677
X6.1772Y-1.1693
X6.1772Y-1.2677
X6.1811Y-0.4606
X6.185Y-0.6575
X6.2008Y-1.8189
X6.2756Y-1.1693
X6.2756Y-1.2677
X6.3465Y-0.9528
X6.3465Y-1.2756
X6.3543Y-1.9409
X6.3583Y-1.5472
X6.3583Y-1.7205
X6.3661Y-0.0354
X6.3661Y-0.5591
X6.374Y-0.315
X6.563Y-0.3189
X6.563Y-0.5748
X6.563Y-0.7441
X6.5669Y-0.9291
X6.5709Y-1.0906
X6.5709Y-1.3228
X6.5709Y-1.5472
X6.5748Y-1.7205
T2
X0.7717Y-0.6587
X0.7717Y-0.7087
X0.7717Y-0.7587
X2.0472Y-0.6587
X2.0472Y-0.7087
X2.0472Y-0.7587
X3.3555Y-0.6535
X3.4055Y-0.6535
X3.4555Y-0.6535
T3
X0.4764Y-0.6268
X0.4764Y-1.0268
X0.5945Y-0.6268
X0.5945Y-1.0268
X0.7126Y-0.8858
X0.7126Y-0.9843
X0.811Y-0.8858
X0.811Y-0.9843
X0.9181Y-0.6693
X0.9181Y-0.9693
X0.9969Y-1.2002
X0.9969Y-1.8002
X1.0181Y-0.6693
X1.0181Y-0.9693
X1.0969Y-1.2002
X1.0969Y-1.8002
X1.1181Y-0.6693
X1.1181Y-0.9693
X1.1969Y-1.2002
X1.1969Y-1.8002
X1.2181Y-0.6693
X1.2181Y-0.9693
X1.2969Y-1.2002
X1.2969Y-1.8002
X1.3181Y-0.6693
X1.3181Y-0.9693
X1.3969Y-1.2002
X1.3969Y-1.8002
X1.4181Y-0.6693
X1.4181Y-0.9693
X1.4969Y-1.2002
X1.4969Y-1.8002
X1.5181Y-0.6693
X1.5181Y-0.9693
X1.5969Y-1.2002
X1.5969Y-1.8002
X1.6181Y-0.6693
X1.6181Y-0.9693
X1.6969Y-1.2002
X1.6969Y-1.8002
X1.752Y-0.6268
X1.752Y-1.0268
X1.7969Y-1.2002
X1.7969Y-1.8002
X1.8701Y-0.6268
X1.8701Y-1.0268
X1.8969Y-1.2002
X1.8969Y-1.8002
X1.9839Y-0.8858
X1.9839Y-0.9843
X1.9969Y-1.2002
X1.9969Y-1.8002
X2.0823Y-0.8858
X2.0823Y-0.9843
X2.0969Y-1.2002
X2.0969Y-1.8002
X2.1947Y-0.6693
X2.1947Y-0.9693
X2.1969Y-1.2002
X2.1969Y-1.8002
X2.2947Y-0.6693
X2.2947Y-0.9693
X2.2969Y-1.2002
X2.2969Y-1.8002
X2.3947Y-0.6693
X2.3947Y-0.9693
X2.3969Y-1.2002
X2.3969Y-1.8002
X2.4947Y-0.6693
X2.4947Y-0.9693
X2.4969Y-1.2002
X2.4969Y-1.8002
X2.5947Y-0.6693
X2.5947Y-0.9693
X2.5969Y-1.2002
X2.5969Y-1.8002
X2.6947Y-0.6693
X2.6947Y-0.9693
X2.6969Y-1.2002
X2.6969Y-1.8002
X2.7947Y-0.6693
X2.7947Y-0.9693
X2.7969Y-1.2002
X2.7969Y-1.8002
X2.8947Y-0.6693
X2.8947Y-0.9693
X2.8969Y-1.2002
X2.8969Y-1.8002
X3.1071Y-0.3583
X3.1071Y-0.4764
X3.1646Y-0.8
X3.1646Y-0.9
X3.1646Y-1.0
X3.1646Y-1.1
X3.1646Y-1.2
X3.1646Y-1.3
X3.1646Y-1.4
X3.1646Y-1.5
X3.1693Y-0.5846
X3.1693Y-0.6831
X3.4646Y-0.8
X3.4646Y-0.9
X3.4646Y-1.0
X3.4646Y-1.1
X3.4646Y-1.2
X3.4646Y-1.3
X3.4646Y-1.4
X3.4646Y-1.5
X3.5071Y-0.3583
X3.5071Y-0.4764
X3.7008Y-1.4929
X3.7008Y-1.8929
X3.7094Y-1.0701
X3.7094Y-1.3701
X3.7126Y-0.548
X3.7126Y-0.948
X3.8094Y-1.0701
X3.8094Y-1.3701
X3.8189Y-1.4929
X3.8189Y-1.8929
X3.8307Y-0.548
X3.8307Y-0.948
X3.9094Y-1.0701
X3.9094Y-1.3701
X3.937Y-1.4929
X3.937Y-1.8929
X3.9488Y-0.548
X3.9488Y-0.948
X4.0094Y-1.0701
X4.0094Y-1.3701
X4.0551Y-1.4929
X4.0551Y-1.8929
X4.0669Y-0.548
X4.0669Y-0.948
X4.1094Y-1.0701
X4.1094Y-1.3701
X4.185Y-0.548
X4.185Y-0.948
X4.2094Y-1.0701
X4.2094Y-1.3701
X4.2913Y-1.4929
X4.2913Y-1.8929
X4.3031Y-0.548
X4.3031Y-0.948
X4.3094Y-1.0701
X4.3094Y-1.3701
X4.4094Y-1.0701
X4.4094Y-1.3701
X4.4094Y-1.4929
X4.4094Y-1.8929
X4.626Y-1.4929
X4.626Y-1.8929
X4.6346Y-1.0701
X4.6346Y-1.3701
X4.6378Y-0.548
X4.6378Y-0.948
X4.7346Y-1.0701
X4.7346Y-1.3701
X4.7441Y-1.4929
X4.7441Y-1.8929
X4.7559Y-0.548
X4.7559Y-0.948
X4.8346Y-1.0701
X4.8346Y-1.3701
X4.8622Y-1.4929
X4.8622Y-1.8929
X4.874Y-0.548
X4.874Y-0.948
X4.9346Y-1.0701
X4.9346Y-1.3701
X4.9803Y-1.4929
X4.9803Y-1.8929
X4.9921Y-0.548
X4.9921Y-0.948
X5.0346Y-1.0701
X5.0346Y-1.3701
X5.1102Y-0.548
X5.1102Y-0.948
X5.1346Y-1.0701
X5.1346Y-1.3701
X5.2165Y-1.4929
X5.2165Y-1.8929
X5.2283Y-0.548
X5.2283Y-0.948
X5.2346Y-1.0701
X5.2346Y-1.3701
X5.3346Y-1.0701
X5.3346Y-1.3701
X5.3346Y-1.4929
X5.3346Y-1.8929
X5.5512Y-1.4961
X5.5512Y-1.8961
X5.5598Y-1.0701
X5.5598Y-1.3701
X5.563Y-0.548
X5.563Y-0.948
X5.6598Y-1.0701
X5.6598Y-1.3701
X5.6693Y-1.4961
X5.6693Y-1.8961
X5.6811Y-0.548
X5.6811Y-0.948
X5.7598Y-1.0701
X5.7598Y-1.3701
X5.7874Y-1.4961
X5.7874Y-1.8961
X5.7992Y-0.548
X5.7992Y-0.948
X5.8598Y-1.0701
X5.8598Y-1.3701
X5.9055Y-1.4961
X5.9055Y-1.8961
X5.9173Y-0.548
X5.9173Y-0.948
X5.9598Y-1.0701
X5.9598Y-1.3701
X6.0354Y-0.548
X6.0354Y-0.948
X6.0598Y-1.0701
X6.0598Y-1.3701
X6.1417Y-1.4961
X6.1417Y-1.8961
X6.1535Y-0.548
X6.1535Y-0.948
X6.1598Y-1.0701
X6.1598Y-1.3701
X6.2598Y-1.0701
X6.2598Y-1.3701
X6.2598Y-1.4961
X6.2598Y-1.8961
T4
X0.2126Y-0.7205
X0.2126Y-0.8189
X0.2126Y-0.9173
X0.2126Y-1.2638
X0.2126Y-1.3622
X0.2126Y-1.4606
X0.4134Y-0.374
X0.5118Y-0.374
X0.6102Y-0.374
X0.7087Y-0.374
X0.8071Y-0.374
X0.9055Y-0.374
X1.0039Y-0.374
X1.1024Y-0.374
X1.2008Y-0.374
X1.2992Y-0.374
X1.3976Y-0.374
X1.4961Y-0.374
X1.811Y-0.374
X1.9094Y-0.374
X2.0079Y-0.374
X2.1063Y-0.374
X2.2047Y-0.374
X2.3031Y-0.374
X2.4016Y-0.374
X2.5Y-0.374
X2.5984Y-0.374
X2.6969Y-0.374
X2.7953Y-0.374
X2.8937Y-0.374
X3.7205Y-0.374
X3.8189Y-0.374
X3.9173Y-0.374
X4.0157Y-0.374
X4.1142Y-0.374
X4.2126Y-0.374
X4.311Y-0.374
X4.4094Y-0.374
X4.5079Y-0.374
X4.6063Y-0.374
X4.7047Y-0.374
X4.8031Y-0.374
X5.1181Y-0.374
X5.2165Y-0.374
X5.315Y-0.374
X5.4134Y-0.374
X5.5118Y-0.374
X5.6102Y-0.374
X5.7087Y-0.374
X5.8071Y-0.374
X5.9055Y-0.374
X6.0039Y-0.374
X6.1024Y-0.374
X6.2008Y-0.374
X6.4321Y-0.6496
X6.4321Y-0.748
X6.4321Y-0.8465
T5
X0.4402Y-1.2047
X0.4402Y-1.3047
X0.4402Y-1.4047
X0.4402Y-1.5047
X0.4402Y-1.6047
X0.4402Y-1.7047
X0.4402Y-1.8047
X0.5402Y-1.2047
X0.5402Y-1.3047
X0.5402Y-1.4047
X0.5402Y-1.5047
X0.5402Y-1.6047
X0.5402Y-1.7047
X0.5402Y-1.8047
X0.6402Y-1.2047
X0.6402Y-1.3047
X0.6402Y-1.4047
X0.6402Y-1.5047
X0.6402Y-1.6047
X0.6402Y-1.7047
X0.6402Y-1.8047
X0.7402Y-1.2047
X0.7402Y-1.3047
X0.7402Y-1.4047
X0.7402Y-1.5047
X0.7402Y-1.6047
X0.7402Y-1.7047
X0.7402Y-1.8047
T0
M30
